<svg width="128" height="128" viewBox="0 0 128 128" fill="none" xmlns="http://www.w3.org/2000/svg">
<rect width="128" height="128" fill="#E6EDFA"/>
<path opacity="0.4" d="M28 48C28 39.1634 35.1634 32 44 32H84C92.8366 32 100 39.1634 100 48V54V90C100 98.8366 92.8366 106 84 106H44C35.1634 106 28 98.8366 28 90V54V48Z" fill="#273652"/>
<path d="M69.9946 59.9999C74.8114 63.0891 78.0041 68.4849 78.0041 74.6274C78.0041 84.222 70.2177 91.9999 60.6128 91.9999C54.4818 91.9999 49.0969 88.8276 46 84.0398C48.7073 85.7765 51.9254 86.7882 55.3818 86.7882C64.9867 86.7882 72.7731 79.0103 72.7731 69.4157C72.7731 65.9445 71.7503 62.7133 69.9946 59.9999Z" fill="#273652"/>
<path d="M84 32H44C35.1634 32 28 39.1634 28 48V54H100V48C100 39.1634 92.8366 32 84 32Z" fill="#273652"/>
<path opacity="0.4" fill-rule="evenodd" clip-rule="evenodd" d="M48.0078 23C49.6647 23 51.0078 24.3431 51.0078 26V38C51.0078 39.6569 49.6647 41 48.0078 41C46.351 41 45.0078 39.6569 45.0078 38V26C45.0078 24.3431 46.351 23 48.0078 23ZM80.0078 23C81.6647 23 83.0078 24.3431 83.0078 26V38C83.0078 39.6569 81.6647 41 80.0078 41C78.351 41 77.0078 39.6569 77.0078 38V26C77.0078 24.3431 78.351 23 80.0078 23Z" fill="#273652"/>
</svg>
