<svg width="24" height="24" viewBox="0 0 24 24" fill="none" xmlns="http://www.w3.org/2000/svg">
<g clip-path="url(#clip0_559_5306)">
<path opacity="0.4" d="M2 7.22892C2 4.67378 4.07136 2.60242 6.62651 2.60242H18.1928C20.7479 2.60242 22.8193 4.67378 22.8193 7.22892V8.96387V19.3735C22.8193 21.9287 20.7479 24 18.1928 24H6.62651C4.07136 24 2 21.9287 2 19.3735V8.96387V7.22892Z" fill="#28303F"/>
<path d="M14.1413 10.6988C15.5341 11.592 16.4573 13.1523 16.4573 14.9284C16.4573 17.7028 14.2058 19.9518 11.4285 19.9518C9.6557 19.9518 8.09863 19.0345 7.20312 17.6501C7.98596 18.1523 8.91648 18.4448 9.91593 18.4448C12.6933 18.4448 14.9447 16.1958 14.9447 13.4214C14.9447 12.4177 14.649 11.4834 14.1413 10.6988Z" fill="#28303F"/>
<path d="M18.1928 2.60242H6.62651C4.07136 2.60242 2 4.67378 2 7.22892V8.96387H22.8193V7.22892C22.8193 4.67378 20.7479 2.60242 18.1928 2.60242Z" fill="#28303F"/>
<path opacity="0.4" fill-rule="evenodd" clip-rule="evenodd" d="M7.78153 0C8.26062 0 8.649 0.38838 8.649 0.86747V4.33735C8.649 4.81644 8.26062 5.20482 7.78153 5.20482C7.30244 5.20482 6.91406 4.81644 6.91406 4.33735V0.86747C6.91406 0.38838 7.30244 0 7.78153 0ZM17.0345 0C17.5136 0 17.902 0.38838 17.902 0.86747V4.33735C17.902 4.81644 17.5136 5.20482 17.0345 5.20482C16.5555 5.20482 16.1671 4.81644 16.1671 4.33735V0.86747C16.1671 0.38838 16.5555 0 17.0345 0Z" fill="#28303F"/>
</g>
<defs>
<clipPath id="clip0_559_5306">
<rect width="24" height="24" fill="white"/>
</clipPath>
</defs>
</svg>
